<svg>
    <symbol
        xmlns="http://www.w3.org/2000/svg"
        xmlns:xlink="http://www.w3.org/1999/xlink"
        id="expand-more" viewBox="0 0 24 24" fill="currentColor">
        <path d="m7 10 5 5 5-5z" />
    </symbol>
    <symbol
        xmlns="http://www.w3.org/2000/svg"
        xmlns:xlink="http://www.w3.org/1999/xlink"
        id="arrow-back" viewBox="0 0 24 24" fill="currentColor"
        focusable="false" aria-hidden="true">
        <path d="M11.67 3.87 9.9 2.1 0 12l9.9 9.9 1.77-1.77L3.54 12z" />
    </symbol>
    <symbol
        xmlns="http://www.w3.org/2000/svg"
        xmlns:xlink="http://www.w3.org/1999/xlink"
        id="arrow-forward" viewBox="0 0 24 24" fill="currentColor"
        focusable="false" aria-hidden="true">
        <path d="M6.23 20.23 8 22l10-10L8 2 6.23 3.77 14.46 12z" />
    </symbol>
    <symbol
        xmlns="http://www.w3.org/2000/svg"
        xmlns:xlink="http://www.w3.org/1999/xlink"
        id="waste-bin" viewBox="0 0 24 24"
        focusable="false" aria-hidden="true">
        <path d="M6 19c0 1.1.9 2 2 2h8c1.1 0 2-.9 2-2V7H6v12zM8
                9h8v10H8V9zm7.5-5-1-1h-5l-1 1H5v2h14V4h-3.5z" />
    </symbol>
    <symbol
        xmlns="http://www.w3.org/2000/svg"
        xmlns:xlink="http://www.w3.org/1999/xlink"
        id="cart" viewBox="0 0 20 20" fill="currentColor">
        <path d="m0 0v2h2l3.5996 7.5898-1.3496 2.4395c-0.73 1.34 0.23001
                2.9707 1.75 2.9707h12v-2h-12l1.0996-2h7.4512c0.75 0
                1.41-0.4093 1.75-1.0293l3.6992-7.0098-1.75-0.96094-3.6992
                7h-7.0215l-4.2598-9zm11.865 6.5312c-2.8e-5 0.00194 4e-5
                0.00392 0 0.00586 0.02078 0.024874 0.03438 0.044078 0.04687
                0.060547-0.01514-0.021626-0.03303-0.046529-0.04687-0.066407zm-5.8652
                9.4688c-1.1 0-1.9902 0.9-1.9902 2s0.89024 2 1.9902 2 2-0.9
                2-2-0.90001-2-2-2zm10 0c-1.1 0-1.9902 0.9-1.9902 2s0.89024 2 1.9902
                2 2-0.9 2-2-0.9-2-2-2z" />
    </symbol>
    <symbol
        xmlns="http://www.w3.org/2000/svg"
        xmlns:xlink="http://www.w3.org/1999/xlink"
        id="menu" viewBox="0 0 24 24" fill="currentColor"
        focusable="false" aria-hidden="true">
        <path d="M3 18h18v-2H3v2zm0-5h18v-2H3v2zm0-7v2h18V6H3z" />
    </symbol>
    <symbol
        xmlns="http://www.w3.org/2000/svg"
        xmlns:xlink="http://www.w3.org/1999/xlink"
        id="amazon-logo" viewBox="0 0 602.280 181.499">
        <path
            fill="currentColor"
            d="m 54.924291,59.51224 v -4.03739 c -13.475471,0
                -27.711211,2.88385 -27.711211,18.77125 0,8.04857
                4.16847,13.50169 11.32567,13.50169 5.24337,0
                9.93618,-3.22467 12.8987,-8.46805 3.670341,-6.44935
                3.486841,-12.50544 3.486841,-19.7675 m 18.79747,45.43378
                c -1.23219,1.10111 -3.01495,1.17976 -4.40444,0.4457
                -6.18716,-5.1385 -7.28828,-7.52423 -10.69647,-12.42678 C
                48.39628,103.39924 41.16045,106.51903 27.89471,106.51903
                12.21703,106.51903 0,96.84502 0,77.47079 0,62.34366
                8.20587,52.04044 19.87236,47.00681 29.99206,42.54993
                44.12294,41.76344 54.924291,40.53125 V 38.1193 c 0,-4.43066
                0.34082,-9.67403 -2.25465,-13.50167 C 50.38876,21.18321
                46.03678,19.7675 42.20911,19.7675 c -7.10475,0
                -13.44924,3.64414 -14.99603,11.19459 -0.31461,1.67789
                -1.5468,3.32955 -3.22467,3.4082 L 5.89879,32.43023 C
                4.37821,32.08943 2.70033,30.85722 3.1198,28.52394
                7.28828,6.60666 27.08199,0 44.80459,0 c 9.071011,0
                20.921021,2.41195 28.078221,9.28076 9.07104,8.46804
                8.20587,19.7675 8.20587,32.06321 v 29.04826 c 0,8.73022
                3.61794,12.55786 7.02613,17.27691 1.20597,1.67786
                1.46814,3.69656 -0.05244,4.95497 -3.80144,3.17225
                -10.56538,9.07104 -14.28819,12.37436 l -0.05242,-0.0525 M
                299.29148,59.51224 v -4.03739 c -13.47547,0
                -27.71121,2.88385 -27.71121,18.77125 0,8.04857
                4.16847,13.50169 11.32567,13.50169 5.24337,0 9.93618,-3.22467
                12.8987,-8.46805 3.67034,-6.44935 3.48684,-12.50544
                3.48684,-19.7675 m 18.79747,45.43378 c -1.23219,1.10111
                -3.01495,1.17976 -4.40444,0.4457 -6.18716,-5.1385
                -7.28828,-7.52423 -10.69647,-12.42678 -10.22457,10.4343
                -17.4604,13.55409 -30.72614,13.55409 -15.67768,0
                -27.89471,-9.67401 -27.89471,-29.04824 0,-15.12713
                8.20587,-25.43035 19.87236,-30.46398 10.1197,-4.45688
                24.25058,-5.24337 35.05193,-6.47556 V 38.1193 c 0,-4.43066
                0.34082,-9.67403 -2.25465,-13.50167 -2.28088,-3.43442
                -6.63286,-4.85013 -10.46053,-4.85013 -7.10475,0
                -13.44924,3.64414 -14.99603,11.19459 -0.31461,1.67789
                -1.5468,3.32955 -3.22467,3.4082 l -18.08962,-1.94006 c
                -1.52058,-0.3408 -3.19846,-1.57301 -2.77899,-3.90629 C
                251.65547,6.60666 271.44918,0 289.17178,0 c 9.07101,0
                20.92102,2.41195 28.07822,9.28076 9.07104,8.46804
                8.20587,19.7675 8.20587,32.06321 v 29.04826 c 0,8.73022
                3.61794,12.55786 7.02613,17.27691 1.20597,1.67786
                1.46814,3.69656 -0.0524,4.95497 -3.80144,3.17225
                -10.56538,9.07104 -14.28819,12.37436 l -0.0524,-0.0525 m
                229.55464,0.26222 h -18.56152 c -1.86141,-0.13107
                -3.35577,-1.62543 -3.35577,-3.46061 l -0.0262,-95.69149 c
                0.1573,-1.75653 1.7041,-3.1198 3.59171,-3.1198 h 17.27691 c
                1.62543,0.0786 2.96249,1.17976 3.32954,2.67412 V 20.2394 h
                0.3408 c 5.21717,-13.0822 12.53165,-19.32181
                25.40412,-19.32181 8.36317,0 16.51662,3.01494
                21.75999,11.27324 4.87633,7.65532 4.87633,20.5278
                4.87633,29.78233 v 60.22011 c -0.20973,1.67786
                -1.75653,3.01492 -3.59169,3.01492 h -18.69262 c
                -1.70411,-0.13107 -3.11982,-1.38948 -3.30332,-3.01492 V
                50.23148 c 0,-10.46052 1.20597,-25.77117 -11.66651,-25.77117
                -4.5355,0 -8.70399,3.04117 -10.77512,7.65532 -2.62167,5.84637
                -2.96249,11.66651 -2.96249,18.11585 v 51.5161 c -0.0262,1.91383
                -1.65166,3.46061 -3.64414,3.46061 M 469.15042,0.91759 c
                27.65877,0 42.62858,23.75246 42.62858,53.95427 0,29.17934
                -16.54284,52.32881 -42.62858,52.32881 -27.16066,0
                -41.94697,-23.75246 -41.94697,-53.35127 0,-29.78234
                14.96983,-52.93181 41.94697,-52.93181 m 0.15729,19.53156 c
                -13.73761,0 -14.60278,18.71881 -14.60278,30.38532 0,11.69271
                -0.18352,36.65114 14.44549,36.65114 14.44548,0
                15.12712,-20.13452 15.12712,-32.40403 0,-8.07477
                -0.34082,-17.72257 -2.779,-25.3779 -2.09735,-6.65906
                -6.26581,-9.25453 -12.19083,-9.25453 m -344.67285,84.75904 h
                -18.64017 c -1.78273,-0.13107 -3.19845,-1.46813
                -3.32954,-3.17224 V 6.37071 c 0,-1.91383 1.59923,-3.43442
                3.59171,-3.43442 h 17.38176 c 1.80898,0.0786 3.25089,1.46814
                3.38199,3.19845 v 12.50545 h 0.34082 c 4.53551,-12.08598
                13.05597,-17.7226 24.53896,-17.7226 11.66649,0 18.95477,5.63662
                24.19814,17.7226 4.5093,-12.08598 14.76008,-17.7226
                25.74495,-17.7226 7.81262,0 16.35931,3.22467 21.57646,10.46052
                5.89879,8.04857 4.69281,19.74128 4.69281,29.99208 l
                -0.0262,60.37739 c 0,1.91383 -1.59923,3.46061 -3.59171,3.46061
                h -18.61397 c -1.86138,-0.13107 -3.35574,-1.62543
                -3.35574,-3.46061 V 51.0442 c 0,-4.03739 0.36702,-14.10466
                -0.52434,-17.93233 -1.38949,-6.42311 -5.55797,-8.23209
                -10.95865,-8.23209 -4.5093,0 -9.22833,3.01494 -11.14216,7.83885
                -1.91383,4.8239 -1.73031,12.89867 -1.73031,18.32557 v 50.70338
                c 0,1.91383 -1.59923,3.46061 -3.59171,3.46061 h -18.61395 c
                -1.88761,-0.13107 -3.35576,-1.62543 -3.35576,-3.46061 l
                -0.0262,-50.70338 c 0,-10.67025 1.75651,-26.37415
                -11.48298,-26.37415 -13.39682,0 -12.87248,15.31063
                -12.87248,26.37415 v 50.70338 c 0,1.91383 -1.59923,3.46061
                -3.59171,3.46061 M 348.13347,19.81993 V 6.13474 c 0,-2.07113
                1.57301,-3.46062 3.46062,-3.46062 h 61.26875 c 1.96628,0
                3.53929,1.41571 3.53929,3.46062 v 11.71893 c -0.0262,1.96626
                -1.67788,4.53551 -4.61418,8.59912 l -31.74859,45.32893 c
                11.79759,-0.28837 24.25059,1.46814 34.94706,7.49802
                2.41195,1.36327 3.06737,3.35575 3.25089,5.32203 v 14.60278 c
                0,1.99248 -2.20222,4.32576 -4.5093,3.1198 -18.84992,-9.88376
                -43.887,-10.95865 -64.72939,0.10487 -2.12356,1.15354
                -4.35199,-1.15354 -4.35199,-3.14602 V 85.41449 c 0,-2.22843
                0.0262,-6.02989 2.25463,-9.41186 L 383.6835,23.25434 h
                -32.01076 c -1.96626,0 -3.53927,-1.38948 -3.53927,-3.43441" />
        <path
            fill="#ff9900"
            d="m 373.64245,141.93799 c -34.99948,25.79739 -85.72909,39.56123
                -129.40634,39.56123 -61.24255,0 -116.37656,-22.65135
                -158.08757,-60.32496 -3.2771,-2.96252 -0.34083,-6.9999
                3.59171,-4.69283 45.01431,26.19064 100.67269,41.94697
                158.16623,41.94697 38.77469,0 81.4295,-8.02237
                120.6499,-24.67006 5.92501,-2.51683 10.87999,3.88009
                5.08607,8.17965" />
        <path
            fill="#ff9900"
            d="m 388.19281,125.2903 c -4.45688,-5.71527 -29.57261,-2.70033
                -40.84585,-1.36327 -3.43442,0.41947 -3.95874,-2.56925
                -0.86517,-4.71905 20.00346,-14.07844 52.82696,-10.01483
                56.65462,-5.2958 3.82764,4.74526 -0.99624,37.64741
                -19.79373,53.35128 -2.88385,2.41195 -5.63662,1.12734
                -4.35198,-2.07113 4.2209,-10.53917 13.68519,-34.16054
                9.20211,-39.90203" />
    </symbol>
    <symbol
        xmlns="http://www.w3.org/2000/svg"
        xmlns:xlink="http://www.w3.org/1999/xlink"
        id="search" viewBox="0 0 24 24"
        focusable="false" aria-hidden="true">
        <path d="M15.5 14h-.79l-.28-.27C15.41 12.59 16 11.11 16 9.5 16 5.91
                13.09 3 9.5 3S3 5.91 3 9.5 5.91 16 9.5 16c1.61 0 3.09-.59
                4.23-1.57l.27.28v.79l5 4.99L20.49 19l-4.99-5zm-6 0C7.01 14 5
                11.99 5 9.5S7.01 5 9.5 5 14 7.01 14 9.5 11.99 14 9.5 14z" />
    </symbol>
</svg>